<svg width="344" height="130" viewBox="0 0 344 130" fill="none" xmlns="http://www.w3.org/2000/svg">
<path d="M118.372 124.046C118.101 124.046 117.784 124.137 117.576 124.028C114.461 122.477 111.355 120.918 108.268 119.34C99.1234 114.66 90.5944 109.069 82.8985 102.262C76.2437 96.3739 71.1825 89.4309 67.9321 81.0544C63.0519 68.476 60.2361 55.591 60.0641 42.0838C59.8649 26.5479 61.6848 11.2735 65.1253 -3.85666C68.6564 -19.3836 73.6271 -34.4235 80.4267 -48.8233C86.1308 -60.8878 92.7946 -72.4473 99.9382 -83.7273C102.772 -88.2086 105.688 -92.6359 108.703 -96.991H99.4403C98.3628 -95.6475 97.2945 -94.2859 96.2351 -92.9244C87.8692 -82.1854 80.2094 -70.9775 73.4189 -59.1836C67.6967 -49.2561 62.1284 -39.2205 58.1899 -28.4635C55.2564 -20.4295 52.9657 -12.1521 50.6569 -3.91072C47.9497 5.73723 45.5504 15.4573 44.138 25.4028C43.1511 32.3908 42.0465 39.3518 42.1551 46.4299C42.1823 48.2784 42.2275 50.1178 42.2728 52.2097C41.8835 51.7048 41.6028 51.4342 41.4218 51.1096C39.5385 47.6292 37.5104 44.2208 35.8444 40.6322C30.1313 28.3333 26.5006 15.3671 23.9926 2.09442C21.9374 -8.81589 21.5752 -19.8795 21.8197 -30.9521C22.1366 -44.9822 24.7803 -58.6877 28.6736 -72.1137C31.1635 -80.6796 34.2328 -88.9931 37.9993 -97H26.2471C20.3801 -87.5775 15.4094 -77.641 11.5251 -67.0913C5.2869 -50.1668 1.23068 -32.7644 0.252838 -14.6587C-0.706909 3.10431 1.09488 20.5518 5.16016 37.8189C10.9548 62.4528 22.6888 84.1832 38.3796 103.813C46.818 114.371 56.5964 123.731 67.425 131.891C72.8665 135.994 78.5163 139.907 84.4015 143.333C94.2794 149.077 104.782 153.576 115.584 157.399C135.629 164.505 156.264 167.633 177.514 166.894C193.512 166.335 209.203 163.846 224.432 158.932C242.368 153.144 258.819 144.334 274.184 133.541C284.922 126.003 294.429 117.058 303.103 107.221C311.233 97.9969 318.431 88.1235 324.271 77.3124C332.04 62.9216 337.771 47.7374 341.619 31.8498C342.443 28.4414 343.212 25.0151 344 21.6068C342.66 23.9421 341.592 26.3495 340.578 28.7841C336.811 37.8369 332.954 46.8537 328.047 55.3475C319.97 69.3235 310.283 82.0733 298.585 93.2721C287.005 104.345 273.74 112.622 258.376 117.446C251.232 119.691 243.989 121.044 236.456 119.98C228.705 118.88 222.847 114.966 218.8 108.321C215.505 102.92 213.974 96.951 213.44 90.7294C212.517 80.0715 213.866 69.6211 216.826 59.369C222.313 40.3977 230.226 22.3732 238.674 4.57404C241.227 -0.80899 243.898 -6.13788 246.515 -11.4939C246.406 -11.566 246.297 -11.6381 246.189 -11.7102C245.166 -10.1774 244.052 -8.68965 243.129 -7.09367C239.443 -0.691757 235.758 5.71919 232.173 12.1842C222.82 29.0546 214.137 46.2225 207.827 64.5086C204.975 72.786 202.458 81.1265 201.181 89.8006C199.814 99.133 199.28 108.447 201.625 117.726C203.182 123.875 205.617 129.538 210.615 133.766C211.702 134.677 212.888 135.471 214.21 136.453C213.712 136.553 213.495 136.625 213.268 136.643C207.184 137.193 201.109 137.887 195.006 138.248C186.187 138.771 177.387 138.708 168.695 136.607C161.76 134.93 155.503 132.026 150.225 127.265C140.274 118.276 134.253 107.041 131.347 94.0475C127.626 77.4386 128.486 60.8117 131.446 44.2569C136.118 18.1623 146.458 -5.84937 159.405 -28.8241C162.583 -34.4686 165.97 -39.9869 169.292 -45.5412C172.633 -51.1226 175.965 -56.713 179.406 -62.2403C183.625 -69.0119 187.881 -75.7565 192.245 -82.4379C195.432 -87.316 198.637 -92.176 201.896 -97H192.761C186.16 -89.7956 179.859 -82.3206 173.774 -74.6564C161.144 -58.7508 149.491 -42.1599 139.713 -24.3608C133.701 -13.4054 128.033 -2.25165 122.519 8.96523C115.801 22.6256 111.862 37.1787 109.481 52.1736C107.652 63.6881 106.177 75.2115 107.145 86.9153C107.987 97.0952 109.798 107.041 114.289 116.328C115.538 118.925 116.978 121.422 118.372 124.046Z" fill="url(#paint0_linear_2043_282)" fill-opacity="0.02"/>
<defs>
<linearGradient id="paint0_linear_2043_282" x1="205.661" y1="163.85" x2="139.692" y2="-123.076" gradientUnits="userSpaceOnUse">
<stop stop-color="white" stop-opacity="0.5"/>
<stop offset="0.3382" stop-color="white"/>
<stop offset="0.4824" stop-color="white"/>
<stop offset="0.7068" stop-color="white"/>
<stop offset="1" stop-color="white" stop-opacity="0.5"/>
</linearGradient>
</defs>
</svg>
